<?xml version="1.0" encoding="utf-8"?>
<!-- Generator: Adobe Illustrator 22.0.1, SVG Export Plug-In . SVG Version: 6.00 Build 0)  -->
<svg version="1.1" id="Слой_1" xmlns="http://www.w3.org/2000/svg" xmlns:xlink="http://www.w3.org/1999/xlink" x="0px" y="0px"
	 viewBox="0 0 211.139 27.389" style="enable-background:new 0 0 211.139 27.389;" xml:space="preserve">
<g>
	<path style="fill:#0151C9;" d="M3.18,18.733C1.06,16.704,0,14.089,0,10.889c0-3.199,1.06-5.814,3.18-7.845
		C5.3,1.015,8.04,0,11.399,0c2.52,0,4.75,0.609,6.689,1.829v4.53c-1.539-1.54-3.569-2.31-6.09-2.31c-2.18,0-3.965,0.635-5.354,1.904
		C5.255,7.225,4.56,8.869,4.56,10.889c0,2,0.69,3.636,2.07,4.905s3.17,1.905,5.369,1.905c2.54,0,4.57-0.761,6.09-2.28v4.53
		c-1.939,1.22-4.17,1.829-6.689,1.829C8.04,21.778,5.3,20.764,3.18,18.733z"/>
	<path style="fill:#0151C9;" d="M22.095,20.443c-1.05-0.81-1.574-1.904-1.574-3.284c0-1.42,0.555-2.53,1.665-3.33
		c1.109-0.8,2.645-1.2,4.604-1.2c0.8,0,1.74,0.09,2.82,0.271v-0.42c0-0.7-0.315-1.235-0.945-1.605s-1.525-0.555-2.685-0.555
		c-1.78,0-3.181,0.39-4.2,1.17v-3.69c1.38-0.779,3.06-1.17,5.04-1.17c2.22,0,3.939,0.471,5.159,1.41c1.221,0.94,1.83,2.26,1.83,3.96
		v5.31c0,0.84,0.54,1.26,1.62,1.26v2.67c-0.44,0.261-1.06,0.391-1.86,0.391c-1.26,0-2.27-0.38-3.029-1.141
		c-1.061,0.78-2.44,1.17-4.14,1.17C24.58,21.658,23.146,21.254,22.095,20.443z M25.515,15.944c-0.529,0.27-0.795,0.645-0.795,1.124
		c0,0.421,0.221,0.745,0.66,0.976c0.44,0.229,1.03,0.345,1.771,0.345c1.039,0,1.859-0.28,2.46-0.84v-1.8
		c-0.761-0.14-1.391-0.21-1.891-0.21C26.78,15.539,26.045,15.674,25.515,15.944z"/>
	<path style="fill:#0151C9;" d="M37.56,21.389V6.989h4.2v5.28h6.149v-5.28h4.2v14.399h-4.2v-5.55H41.76v5.55H37.56z"/>
	<path style="fill:#0151C9;" d="M54.239,10.56v-3.57h13.829v3.57h-4.8v10.829h-4.199V10.56H54.239z"/>
	<path style="fill:#0151C9;" d="M82.379,9.044c1.3,1.63,1.8,3.765,1.5,6.405H73.8c0.359,0.819,0.994,1.455,1.904,1.904
		c0.91,0.45,2.016,0.676,3.315,0.676c1.739,0,3.149-0.4,4.229-1.2v3.72c-1.42,0.82-3.08,1.229-4.979,1.229
		c-2.7,0-4.855-0.699-6.465-2.1c-1.61-1.4-2.415-3.27-2.415-5.609c0-2.181,0.69-3.97,2.07-5.37s3.18-2.1,5.399-2.1
		C79.239,6.6,81.079,7.414,82.379,9.044z M79.799,12.569c-0.08-0.74-0.385-1.325-0.915-1.755c-0.529-0.431-1.194-0.646-1.994-0.646
		c-0.78,0-1.46,0.215-2.04,0.646c-0.58,0.43-0.98,1.015-1.2,1.755H79.799z"/>
	<path style="fill:#0151C9;" d="M84.75,21.389l5.64-7.29L84.9,6.989h4.95l3.119,4.41l3.12-4.41h4.95l-5.49,7.109l5.64,7.29H96.24
		l-3.271-4.59l-3.27,4.59H84.75z"/>
	<path style="fill:#464358;" d="M103.559,21.389V0.39h2.58l9.78,13.859l9.779-13.89h2.55v21.029h-4.439V10.02l-6.87,9.869h-2.04
		l-6.899-9.899v11.399H103.559z"/>
	<path style="fill:#464358;" d="M132.794,20.443c-1.05-0.81-1.574-1.904-1.574-3.284c0-1.42,0.555-2.53,1.665-3.33
		c1.109-0.8,2.645-1.2,4.604-1.2c0.8,0,1.74,0.09,2.82,0.271v-0.42c0-0.7-0.315-1.235-0.945-1.605s-1.525-0.555-2.685-0.555
		c-1.78,0-3.181,0.39-4.2,1.17v-3.69c1.38-0.779,3.06-1.17,5.04-1.17c2.22,0,3.939,0.471,5.159,1.41c1.221,0.94,1.83,2.26,1.83,3.96
		v5.31c0,0.84,0.54,1.26,1.62,1.26v2.67c-0.44,0.261-1.06,0.391-1.86,0.391c-1.26,0-2.27-0.38-3.029-1.141
		c-1.061,0.78-2.44,1.17-4.14,1.17C135.279,21.658,133.845,21.254,132.794,20.443z M136.214,15.944
		c-0.529,0.27-0.795,0.645-0.795,1.124c0,0.421,0.221,0.745,0.66,0.976c0.44,0.229,1.03,0.345,1.771,0.345
		c1.039,0,1.859-0.28,2.46-0.84v-1.8c-0.761-0.14-1.391-0.21-1.891-0.21C137.479,15.539,136.744,15.674,136.214,15.944z"/>
	<path style="fill:#464358;" d="M148.259,6.989h3.72l0.12,0.6c1.04-0.58,2.22-0.869,3.54-0.869c2.14,0,3.885,0.689,5.234,2.069
		c1.351,1.38,2.025,3.18,2.025,5.4c0,2.199-0.67,3.994-2.01,5.385c-1.34,1.39-3.08,2.084-5.22,2.084c-1.22,0-2.29-0.239-3.21-0.72
		v6.45h-4.2V6.989z M154.858,18.059c1.101,0,1.995-0.359,2.686-1.08c0.689-0.72,1.035-1.649,1.035-2.789
		c0-1.141-0.346-2.07-1.035-2.79c-0.69-0.721-1.585-1.08-2.686-1.08c-0.96,0-1.76,0.27-2.399,0.81v6.12
		C153.099,17.789,153.898,18.059,154.858,18.059z"/>
	<path style="fill:#464358;" d="M165.688,6.989h4.2v5.28h1.83l3.75-5.28h4.829l-5.189,7.109l5.58,7.29h-4.891l-4.079-5.55h-1.83
		v5.55h-4.2V6.989z"/>
	<path style="fill:#464358;" d="M194.248,9.044c1.3,1.63,1.8,3.765,1.5,6.405h-10.079c0.359,0.819,0.994,1.455,1.904,1.904
		c0.91,0.45,2.016,0.676,3.315,0.676c1.739,0,3.149-0.4,4.229-1.2v3.72c-1.42,0.82-3.08,1.229-4.979,1.229
		c-2.7,0-4.855-0.699-6.465-2.1c-1.61-1.4-2.415-3.27-2.415-5.609c0-2.181,0.69-3.97,2.07-5.37s3.18-2.1,5.399-2.1
		C191.108,6.6,192.948,7.414,194.248,9.044z M191.668,12.569c-0.08-0.74-0.385-1.325-0.915-1.755
		c-0.529-0.431-1.194-0.646-1.994-0.646c-0.78,0-1.46,0.215-2.04,0.646c-0.58,0.43-0.98,1.015-1.2,1.755H191.668z"/>
	<path style="fill:#464358;" d="M197.31,10.56v-3.57h13.829v3.57h-4.8v10.829h-4.199V10.56H197.31z"/>
</g>
</svg>
