<?xml version="1.0" encoding="utf-8"?>
<!-- Generator: Adobe Illustrator 22.0.1, SVG Export Plug-In . SVG Version: 6.00 Build 0)  -->
<svg version="1.1" id="Слой_1" xmlns="http://www.w3.org/2000/svg" xmlns:xlink="http://www.w3.org/1999/xlink" x="0px" y="0px"
	 viewBox="0 0 211.139 27.389" style="enable-background:new 0 0 211.139 27.389;" xml:space="preserve">
<g>
	<path style="fill:#E9B91F;" d="M3.18,18.734C1.06,16.705,0,14.089,0,10.89s1.06-5.815,3.18-7.845S8.04,0,11.399,0
		c2.52,0,4.75,0.61,6.689,1.83v4.53c-1.539-1.54-3.569-2.31-6.09-2.31c-2.18,0-3.965,0.635-5.354,1.905
		C5.255,7.225,4.56,8.87,4.56,10.89c0,2,0.69,3.635,2.07,4.905s3.17,1.905,5.369,1.905c2.54,0,4.57-0.76,6.09-2.28v4.53
		c-1.939,1.22-4.17,1.83-6.689,1.83C8.04,21.779,5.3,20.764,3.18,18.734z"/>
	<path style="fill:#E9B91F;" d="M22.095,20.444c-1.05-0.81-1.574-1.905-1.574-3.285c0-1.42,0.555-2.53,1.665-3.33
		c1.109-0.8,2.645-1.2,4.604-1.2c0.8,0,1.74,0.09,2.82,0.27v-0.42c0-0.7-0.315-1.235-0.945-1.605S27.14,10.32,25.98,10.32
		c-1.78,0-3.181,0.39-4.2,1.17V7.8c1.38-0.78,3.06-1.17,5.04-1.17c2.22,0,3.939,0.47,5.159,1.41c1.221,0.94,1.83,2.26,1.83,3.96
		v5.31c0,0.84,0.54,1.26,1.62,1.26v2.67c-0.44,0.26-1.06,0.39-1.86,0.39c-1.26,0-2.27-0.38-3.029-1.14
		c-1.061,0.78-2.44,1.17-4.14,1.17C24.58,21.659,23.146,21.254,22.095,20.444z M25.515,15.944c-0.529,0.27-0.795,0.645-0.795,1.125
		c0,0.42,0.221,0.745,0.66,0.975c0.44,0.23,1.03,0.345,1.771,0.345c1.039,0,1.859-0.28,2.46-0.84v-1.8
		c-0.761-0.14-1.391-0.21-1.891-0.21C26.78,15.54,26.045,15.674,25.515,15.944z"/>
	<path style="fill:#E9B91F;" d="M37.56,21.389V6.99h4.2v5.28h6.149V6.99h4.2v14.399h-4.2v-5.55H41.76v5.55H37.56z"/>
	<path style="fill:#E9B91F;" d="M54.239,10.56V6.99h13.829v3.57h-4.8v10.83h-4.199V10.56H54.239z"/>
	<path style="fill:#E9B91F;" d="M82.379,9.044c1.3,1.63,1.8,3.765,1.5,6.405H73.8c0.359,0.82,0.994,1.455,1.904,1.905
		c0.91,0.45,2.016,0.675,3.315,0.675c1.739,0,3.149-0.4,4.229-1.2v3.72c-1.42,0.82-3.08,1.23-4.979,1.23c-2.7,0-4.855-0.7-6.465-2.1
		c-1.61-1.4-2.415-3.27-2.415-5.61c0-2.18,0.69-3.97,2.07-5.37s3.18-2.1,5.399-2.1C79.239,6.6,81.079,7.415,82.379,9.044z
		 M79.799,12.569c-0.08-0.74-0.385-1.325-0.915-1.755c-0.529-0.43-1.194-0.645-1.994-0.645c-0.78,0-1.46,0.215-2.04,0.645
		c-0.58,0.43-0.98,1.015-1.2,1.755H79.799z"/>
	<path style="fill:#E9B91F;" d="M84.75,21.389l5.64-7.29L84.9,6.99h4.95l3.119,4.41l3.12-4.41h4.95l-5.49,7.11l5.64,7.29H96.24
		l-3.271-4.59l-3.27,4.59H84.75z"/>
	<path style="fill:#FFFFFF;" d="M103.559,21.389V0.39h2.58l9.78,13.859l9.779-13.89h2.55v21.029h-4.439V10.02l-6.87,9.87h-2.04
		l-6.899-9.899v11.399H103.559z"/>
	<path style="fill:#FFFFFF;" d="M132.794,20.444c-1.05-0.81-1.574-1.905-1.574-3.285c0-1.42,0.555-2.53,1.665-3.33
		c1.109-0.8,2.645-1.2,4.604-1.2c0.8,0,1.74,0.09,2.82,0.27v-0.42c0-0.7-0.315-1.235-0.945-1.605s-1.525-0.555-2.685-0.555
		c-1.78,0-3.181,0.39-4.2,1.17V7.8c1.38-0.78,3.06-1.17,5.04-1.17c2.22,0,3.939,0.47,5.159,1.41c1.221,0.94,1.83,2.26,1.83,3.96
		v5.31c0,0.84,0.54,1.26,1.62,1.26v2.67c-0.44,0.26-1.06,0.39-1.86,0.39c-1.26,0-2.27-0.38-3.029-1.14
		c-1.061,0.78-2.44,1.17-4.14,1.17C135.279,21.659,133.845,21.254,132.794,20.444z M136.214,15.944
		c-0.529,0.27-0.795,0.645-0.795,1.125c0,0.42,0.221,0.745,0.66,0.975c0.44,0.23,1.03,0.345,1.771,0.345
		c1.039,0,1.859-0.28,2.46-0.84v-1.8c-0.761-0.14-1.391-0.21-1.891-0.21C137.479,15.54,136.744,15.674,136.214,15.944z"/>
	<path style="fill:#FFFFFF;" d="M148.259,6.99h3.72l0.12,0.6c1.04-0.58,2.22-0.87,3.54-0.87c2.14,0,3.885,0.69,5.234,2.07
		c1.351,1.38,2.025,3.18,2.025,5.4c0,2.2-0.67,3.995-2.01,5.385s-3.08,2.085-5.22,2.085c-1.22,0-2.29-0.24-3.21-0.72v6.45h-4.2V6.99
		z M154.858,18.059c1.101,0,1.995-0.36,2.686-1.08c0.689-0.72,1.035-1.65,1.035-2.79s-0.346-2.07-1.035-2.79
		c-0.69-0.72-1.585-1.08-2.686-1.08c-0.96,0-1.76,0.27-2.399,0.81v6.12C153.099,17.79,153.898,18.059,154.858,18.059z"/>
	<path style="fill:#FFFFFF;" d="M165.688,6.99h4.2v5.28h1.83l3.75-5.28h4.829l-5.189,7.11l5.58,7.29h-4.891l-4.079-5.55h-1.83v5.55
		h-4.2V6.99z"/>
	<path style="fill:#FFFFFF;" d="M194.248,9.044c1.3,1.63,1.8,3.765,1.5,6.405h-10.079c0.359,0.82,0.994,1.455,1.904,1.905
		c0.91,0.45,2.016,0.675,3.315,0.675c1.739,0,3.149-0.4,4.229-1.2v3.72c-1.42,0.82-3.08,1.23-4.979,1.23c-2.7,0-4.855-0.7-6.465-2.1
		c-1.61-1.4-2.415-3.27-2.415-5.61c0-2.18,0.69-3.97,2.07-5.37s3.18-2.1,5.399-2.1C191.108,6.6,192.948,7.415,194.248,9.044z
		 M191.668,12.569c-0.08-0.74-0.385-1.325-0.915-1.755c-0.529-0.43-1.194-0.645-1.994-0.645c-0.78,0-1.46,0.215-2.04,0.645
		c-0.58,0.43-0.98,1.015-1.2,1.755H191.668z"/>
	<path style="fill:#FFFFFF;" d="M197.31,10.56V6.99h13.829v3.57h-4.8v10.83h-4.199V10.56H197.31z"/>
</g>
</svg>
